# xmcd
#
# Track frame offsets:
#	150
#	19787
#	39871
#	56017
#	74622
#	89574
#	109650
#	128223
#	150061
#	168855
#	187312
#	209352
#	229605
#	249313
#
# Disc length: 3614 seconds
#
# Revision: 0
# Processed by: cddbd v1.5.2PL0 Copyright (c) Steve Scherf et al.
# Submitted via: EasyCDDAExtractor 15.3.0.1
#
DISCID=b50e1c0e
DTITLE=Alejandro Fernandez - Sueño Contigo
DYEAR=2015
DGENRE=Latin
TTITLE0=Estabas Ahi
TTITLE1=Sueño Contigo
TTITLE2=Cuando Estamos Juntos
TTITLE3=Tu Desvario
TTITLE4=Abrazame
TTITLE5=Yo Naci Para Amarte
TTITLE6=Si Tu Supieras
TTITLE7=En El Jardin (Duo Con Gloria Estefan)
TTITLE8=Te Voy A Perder
TTITLE9=Quisiera
TTITLE10=Estas Aqui
TTITLE11=Entre Tus Brazos
TTITLE12=Que Lastima
TTITLE13=Quiereme
EXTD=
EXTT0=
EXTT1=
EXTT2=
EXTT3=
EXTT4=
EXTT5=
EXTT6=
EXTT7=
EXTT8=
EXTT9=
EXTT10=
EXTT11=
EXTT12=
EXTT13=
PLAYORDER=
